<?xml version="1.0" standalone="no"?>
<!DOCTYPE svg PUBLIC "-//W3C//DTD SVG 20010904//EN"
 "http://www.w3.org/TR/2001/REC-SVG-20010904/DTD/svg10.dtd">
<svg version="1.0" xmlns="http://www.w3.org/2000/svg"
 width="512.000000pt" height="512.000000pt" viewBox="0 0 512.000000 512.000000"
 preserveAspectRatio="xMidYMid meet">
<metadata>
Created by potrace 1.13, written by Peter Selinger 2001-2015
</metadata>
<g transform="translate(0.000000,512.000000) scale(0.100000,-0.100000)"
fill="#cee0e6" stroke="none">
<path d="M2750 4308 c-110 -42 -210 -133 -210 -192 0 -31 53 -77 95 -83 35 -4
46 -1 74 22 41 35 39 66 -6 77 -17 5 -41 4 -55 -1 -20 -9 -18 -10 19 -10 49
-1 62 -15 37 -42 -36 -40 -124 -13 -124 38 0 35 70 102 146 139 44 21 77 30
130 32 64 4 73 2 100 -21 25 -22 29 -32 27 -74 -2 -85 -97 -279 -131 -269 -9
3 -60 10 -113 16 -222 23 -525 -37 -742 -146 l-67 -34 -51 40 c-75 59 -259
163 -259 146 0 -2 42 -35 93 -74 50 -38 109 -85 130 -103 l39 -34 -47 -33 -47
-33 -57 53 c-58 54 -132 96 -228 129 -29 10 -53 17 -53 15 0 -1 43 -29 95 -61
52 -32 118 -82 146 -111 l52 -53 -94 -89 -94 -90 -37 34 c-20 18 -54 42 -75
52 -42 22 -144 54 -150 48 -2 -2 25 -20 60 -40 62 -34 167 -120 167 -136 0 -4
-20 -36 -43 -72 -24 -36 -54 -90 -67 -120 -23 -56 -23 -56 -74 -62 -76 -10
-148 -56 -200 -126 -43 -58 -75 -147 -61 -170 4 -6 -1 -18 -11 -26 -17 -14
-17 -15 -2 -10 12 4 22 -3 32 -22 29 -55 107 -106 154 -100 24 3 27 7 25 38
-1 26 -11 44 -42 72 -22 21 -51 39 -63 40 -13 0 -30 2 -38 2 -40 4 4 127 70
195 47 48 83 68 141 77 39 7 42 6 34 -12 -4 -10 -12 -109 -18 -219 -8 -165
-13 -202 -26 -209 -40 -24 -145 -136 -167 -178 -60 -119 -14 -222 201 -451
l36 -38 -46 -41 c-92 -81 -111 -163 -70 -302 35 -120 69 -190 119 -241 94 -98
237 -80 327 43 22 30 38 42 56 42 13 0 47 10 74 21 l49 22 46 -20 45 -20 -39
-49 c-55 -70 -116 -122 -176 -151 -45 -22 -47 -24 -16 -18 63 13 150 66 206
129 30 32 54 63 54 68 0 5 15 7 33 3 72 -15 71 -11 20 -77 -183 -233 -496
-569 -571 -611 -32 -18 -32 -18 -32 3 0 12 18 60 40 107 22 47 40 89 40 92 0
13 -73 -116 -91 -161 -36 -91 4 -103 102 -32 95 69 304 286 441 458 160 201
148 191 133 104 -7 -40 -16 -105 -20 -145 l-7 -72 -90 -113 c-50 -62 -128
-156 -173 -208 -45 -52 -102 -117 -125 -145 -24 -27 10 2 74 65 65 63 159 162
209 220 49 58 92 107 95 110 2 3 1 -35 -2 -85 -20 -269 -47 -388 -112 -485
l-37 -55 32 30 c43 40 105 172 125 265 9 41 23 147 30 234 14 152 16 161 45
200 17 23 63 88 102 146 39 58 72 106 74 108 1 1 19 -14 41 -35 60 -56 135
-86 224 -89 43 -1 99 -11 130 -22 l55 -19 0 -134 c-1 -112 -5 -147 -25 -213
-44 -145 -130 -243 -240 -272 -40 -11 -42 -13 -14 -13 44 -1 146 53 189 101
82 90 135 258 135 428 l0 91 63 -7 c138 -14 237 57 237 170 0 56 -37 141 -85
194 l-45 49 55 37 55 36 53 -20 c87 -33 127 -93 127 -192 0 -74 21 -48 27 34
5 84 -20 129 -96 170 -30 16 -57 31 -60 34 -6 6 151 165 160 162 3 -2 32 -34
64 -73 75 -91 152 -171 190 -198 17 -12 25 -15 19 -7 -50 70 -158 205 -201
253 l-53 59 31 39 c34 43 44 42 90 -8 35 -37 50 -66 69 -138 l17 -60 7 38 c14
76 -29 171 -97 212 -38 23 -39 25 -12 19 17 -4 59 -22 95 -40 172 -85 390
-111 390 -45 0 15 10 20 58 26 129 15 462 98 449 111 -2 2 -30 -1 -63 -6 -317
-51 -512 -60 -747 -35 -210 22 -193 12 -150 100 l37 75 111 0 c253 0 529 42
565 85 10 13 8 13 -16 0 -44 -21 -173 -34 -422 -42 l-225 -6 7 24 c4 13 9 47
13 76 l6 51 58 21 c119 44 232 152 293 281 28 60 31 74 34 195 2 103 14 184
26 185 0 0 19 7 41 15 27 9 33 14 18 15 -38 0 -72 -18 -91 -50 l-19 -30 -29
31 c-27 29 -32 31 -84 25 -30 -3 -64 -8 -75 -11 -15 -5 -24 1 -37 23 -10 17
-49 63 -87 103 l-68 74 68 58 c55 45 77 57 107 59 37 1 37 1 4 5 l-32 4 39 47
c49 58 65 96 51 123 -6 10 -15 19 -20 19 -4 0 -17 3 -27 7 -12 4 -11 0 7 -14
31 -26 25 -40 -52 -122 -50 -54 -61 -61 -94 -61 l-37 0 20 23 c38 43 35 48
-10 14 -39 -30 -54 -35 -127 -41 -65 -5 -92 -3 -126 10 -49 18 -52 24 -26 40
173 111 254 164 250 164 -3 0 -31 -9 -63 -20 -71 -24 -175 -81 -219 -121 -37
-32 -56 -37 -56 -14 0 9 -11 26 -24 38 -52 48 -75 23 356 384 147 123 270 229
274 235 9 15 -40 -15 -176 -105 -88 -59 -138 -95 -248 -180 -6 -5 -1 16 14 46
14 31 28 73 30 94 5 35 2 32 -36 -36 -66 -118 -135 -212 -200 -269 -33 -29
-60 -50 -60 -46 0 4 28 62 61 130 69 138 82 199 56 251 -17 33 -64 58 -94 50
-15 -4 -15 -5 3 -6 12 0 33 -12 48 -26 41 -38 36 -81 -31 -217 -31 -65 -59
-118 -62 -118 -3 0 -14 11 -23 24 -17 23 -16 27 6 83 14 32 22 60 19 63 -7 8
-63 -58 -63 -75 0 -20 -3 -19 -45 9 -20 14 -57 33 -83 42 -26 10 -49 19 -50
20 -2 1 10 23 28 48 149 218 127 367 -57 365 -33 0 -81 -9 -113 -21z m-16
-437 c90 -62 196 -166 196 -193 0 -28 -208 18 -265 58 -59 42 -121 67 -230 94
l-110 27 95 16 c201 35 260 35 314 -2z m80 19 c21 0 27 -4 22 -15 -4 -12 -2
-13 14 -3 41 26 178 -42 235 -116 28 -37 29 -63 2 -100 -22 -30 -75 -7 -110
49 -35 55 -94 108 -178 159 -35 21 -53 35 -39 32 14 -3 38 -6 54 -6z m-411
-94 c20 -8 62 -29 93 -47 l55 -34 -53 -16 c-65 -19 -126 -50 -166 -83 l-30
-26 -35 39 c-20 22 -43 54 -52 71 -15 30 -15 33 2 53 49 60 103 72 186 43z
m-540 -290 c-4 -17 -8 -70 -8 -118 l0 -87 -35 -18 c-19 -9 -38 -19 -42 -21
-15 -7 -20 98 -9 182 6 49 14 92 16 95 2 4 22 5 45 3 41 -4 41 -5 33 -36z
m141 8 c15 -5 18 -14 14 -55 -5 -53 -31 -89 -80 -115 -37 -19 -41 -9 -46 102
l-4 92 48 -9 c27 -5 57 -12 68 -15z m-305 -70 c-6 -32 -9 -101 -6 -151 2 -51
2 -93 -1 -93 -4 0 -23 17 -44 37 -31 30 -38 44 -38 75 0 21 6 54 14 73 17 40
76 128 82 122 2 -2 -1 -30 -7 -63z m378 46 c23 -8 31 -20 41 -55 7 -25 12 -52
12 -61 0 -16 -186 -111 -197 -100 -4 3 -4 7 -2 9 90 63 109 92 109 167 0 27 2
50 4 50 1 0 16 -5 33 -10z m1447 -181 c60 -55 150 -161 158 -186 2 -5 -9 -23
-24 -41 l-26 -32 -31 65 c-35 76 -113 163 -176 196 l-45 24 33 17 c17 9 35 17
38 18 3 0 36 -28 73 -61z m-1939 -130 c8 -15 15 -32 15 -37 0 -5 -21 -24 -47
-42 -27 -19 -72 -57 -101 -85 l-54 -50 7 50 c4 28 11 67 16 88 10 37 11 38 47
31 20 -4 47 -11 60 -15 38 -15 39 -9 2 11 -19 11 -42 19 -50 20 -51 2 -47 25
24 143 l41 68 13 -77 c7 -42 19 -89 27 -105z m1790 115 c123 -72 206 -212 221
-374 6 -64 5 -68 -22 -98 -16 -17 -38 -33 -49 -36 -19 -5 -20 -1 -20 77 0 73
-4 90 -32 148 -21 42 -54 86 -92 122 -59 57 -59 57 -63 122 -1 36 1 65 5 65 5
0 28 -12 52 -26z m534 -190 c31 -40 27 -71 -18 -115 -21 -22 -43 -39 -47 -39
-5 0 -25 36 -46 80 l-36 79 26 10 c53 19 99 13 121 -15z m-493 -100 c27 -56
41 -141 30 -197 -6 -31 -11 -35 -41 -39 l-35 -4 0 96 c0 56 -7 117 -16 150 -9
30 -18 69 -21 85 l-4 30 30 -35 c17 -19 42 -58 57 -86z m343 -24 c11 -30 23
-67 27 -82 6 -26 4 -28 -24 -28 -16 0 -45 -11 -64 -24 l-35 -24 -7 83 c-6 89
-4 104 27 149 l20 28 18 -23 c10 -13 27 -49 38 -79z m171 -97 c-16 -92 -56
-160 -139 -244 -55 -55 -95 -85 -145 -109 -55 -26 -70 -30 -77 -19 -6 11 4 18
44 30 102 31 172 82 210 153 18 34 22 58 23 144 l0 103 30 18 c16 10 36 26 44
36 14 17 15 16 18 -18 2 -20 -2 -62 -8 -94z m-2293 69 c-9 -9 -31 -49 -49 -87
-29 -62 -33 -80 -33 -155 0 -47 4 -96 9 -110 7 -21 3 -19 -19 10 -35 46 -75
125 -75 147 1 54 59 134 144 200 33 26 48 23 23 -5z m88 6 c14 -6 24 -14 22
-17 -67 -126 -107 -227 -132 -336 -5 -22 -9 -26 -14 -15 -32 59 -14 194 40
311 33 72 41 77 84 57z m2065 -153 c0 -97 -86 -191 -201 -218 l-25 -6 33 65
c18 37 33 72 33 78 0 24 124 126 153 126 4 0 7 -20 7 -45z m-2356 -236 c23
-55 25 -70 16 -95 -16 -42 -40 -160 -41 -202 -1 -59 -15 -11 -29 98 -15 112
-1 298 19 273 4 -4 20 -38 35 -74z m2105 -136 c0 -16 -6 -46 -13 -68 -10 -36
-16 -40 -51 -47 -79 -14 -92 -11 -97 22 -4 24 3 36 36 69 23 22 52 41 66 44
55 10 60 8 59 -20z m-1959 -166 c14 -23 30 -57 37 -74 11 -30 10 -34 -15 -52
-15 -11 -34 -31 -42 -45 l-14 -26 -29 27 c-26 26 -29 32 -24 79 5 49 40 134
55 134 4 0 18 -19 32 -43z m-95 -357 c67 -102 121 -157 184 -186 20 -9 38 -18
40 -20 6 -6 -41 -80 -58 -91 -26 -17 -101 37 -233 165 -101 99 -133 122 -89
65 11 -13 18 -30 15 -37 -3 -7 -8 -42 -12 -77 l-8 -64 -19 77 c-18 74 -18 81
-2 132 18 55 91 151 108 141 5 -4 38 -50 74 -105z m567 48 c2 -25 -2 -54 -12
-72 -21 -42 -57 -45 -125 -10 l-53 28 76 48 c96 60 109 61 114 6z m-202 -138
c71 -11 130 -37 130 -57 0 -20 -42 -42 -93 -49 -57 -8 -92 11 -113 61 -25 61
-26 61 76 45z m-383 -138 c24 -23 62 -56 84 -71 45 -33 40 -40 -34 -47 -103
-10 -156 48 -165 179 l-4 72 38 -45 c21 -25 58 -64 81 -88z m1462 54 l25 -14
-30 -15 c-47 -24 -165 -64 -226 -76 -54 -12 -60 -11 -99 12 l-41 25 33 36 c26
31 37 36 58 31 37 -9 151 -7 186 4 42 13 66 12 94 -3z m112 -88 c77 -83 106
-206 63 -265 -31 -42 -80 -63 -144 -62 -99 2 -108 8 -134 71 -13 31 -39 78
-59 105 l-36 49 58 18 c32 9 91 39 132 66 41 26 78 49 82 49 4 1 22 -14 38
-31z m-1590 -118 c44 -12 114 -7 155 12 24 11 114 -6 114 -22 0 -15 -49 -59
-88 -79 -95 -49 -183 -14 -251 99 -28 46 -27 55 3 25 13 -13 43 -29 67 -35z
m1262 -22 c31 -36 91 -147 84 -155 -8 -7 -174 64 -265 114 -46 25 -81 48 -77
51 16 16 105 31 165 27 59 -4 68 -7 93 -37z m-384 -20 c-13 -25 -159 -238
-163 -238 -3 0 11 149 19 207 l6 42 72 4 c40 1 73 4 75 5 1 1 -3 -8 -9 -20z"/>
</g>
</svg>
